<svg width="116" height="118" viewBox="0 0 116 118" fill="none" xmlns="http://www.w3.org/2000/svg">
<path d="M55.9433 64.5237C52.8819 65.4207 49.8204 66.3291 46.7589 67.2146C46.3892 67.3181 46.0196 67.4101 45.6383 67.4561C43.4086 67.6746 41.5833 68.4796 39.7464 69.9286C36.142 72.7576 34.825 76.4835 34.178 80.727C33.5311 84.9589 31.209 88.2479 27.6507 90.7088C28.3901 89.6049 29.1873 88.5469 29.8573 87.4084C31.6595 84.3839 32.318 81.049 32.8264 77.599C33.1152 75.667 34.1434 73.8386 34.9058 71.9871C35.6914 70.0896 36.5925 68.2381 37.355 66.3291C38.3139 63.9602 40.2663 62.6952 42.4498 61.7752C46.551 60.0387 50.6984 58.4517 54.8227 56.7843C58.0113 55.4848 63.0945 56.0138 64.9082 58.2563C67.2996 61.2117 67.4729 63.1552 64.5039 65.6047C60.9341 68.5371 57.7224 71.9181 54.4415 75.184C53.3209 76.2995 52.4429 77.6565 51.4493 78.8985C51.5071 79.048 51.5648 79.1975 51.6226 79.3585C52.5353 79.1975 53.4479 79.071 54.3491 78.8525C56.9484 78.22 59.0279 78.841 60.1947 80.6465C61.1536 82.1185 60.7262 83.5099 59.0048 83.7744C57.2488 84.0504 55.435 83.9584 53.6443 84.0389C52.0039 84.1079 50.3518 84.1769 48.7113 84.3034C48.3532 84.3264 47.9257 84.4874 47.6831 84.7404C43.2931 88.9954 38.9146 93.2733 34.5593 97.5513C34.3513 97.7583 34.2704 98.0918 34.2242 98.1722C36.7658 98.1722 39.3998 98.5402 41.8721 98.0802C45.5228 97.4018 48.9655 97.9308 52.4082 98.8852C55.331 99.7017 55.4466 99.5982 56.8906 96.8958C58.1037 94.6303 59.5709 92.4913 61.0381 90.3753C63.0251 87.5119 64.2266 84.4874 64.2151 80.9225C64.2151 78.8295 64.4808 76.5985 65.2433 74.6665C66.387 71.7571 68.0621 69.0431 69.5409 66.2601C70.9965 63.5117 72.8565 60.9127 73.8731 58.0263C75.3865 53.7483 78.2169 51.3678 82.4452 50.1603C84.6056 49.5394 86.6966 49.1484 88.8685 49.8499C90.821 50.4823 92.2535 51.9083 93.0275 53.6793C94.021 55.9563 94.8297 58.3712 95.2456 60.8092C95.7309 63.7417 94.668 66.4901 92.8889 68.8246C91.2368 70.9981 89.1574 72.8611 87.5515 75.069C86.2461 76.863 85.4027 78.979 84.2821 80.911C83.7507 81.831 83.1731 82.7624 82.4337 83.5099C80.9549 84.9934 79.2682 84.4414 78.7946 82.3944C78.1014 79.393 79.0718 76.679 80.5506 74.2065C82.2373 71.3891 84.2706 68.7901 86.1074 66.0532C87.771 63.5692 87.9212 60.8322 87.1703 58.0263C86.9508 57.1983 86.3847 57.0258 85.4374 57.0833C83.1731 57.2213 81.5903 58.2332 80.5275 60.1422C78.3209 64.1097 74.832 67.0191 71.9785 70.4461C70.6615 72.0331 69.3445 73.6776 68.3971 75.4945C67.8657 76.518 67.6231 78.128 68.0621 79.117C70.0376 83.6249 69.3907 87.8684 67.496 92.1578C66.9415 93.3998 66.5834 94.7568 66.3292 96.0908C66.2021 96.7348 66.5256 97.4593 66.618 98.0342C69.2058 95.9873 71.5279 94.0208 74.0002 92.2498C75.0862 91.4793 76.4147 90.9158 77.7202 90.6168C78.4827 90.4443 79.4069 90.9618 80.2618 91.1688C79.9845 92.0658 79.9614 93.2043 79.3838 93.8023C76.6227 96.6543 73.6767 99.3337 70.8463 102.117C69.6448 103.301 68.2585 103.899 66.6758 103.37C64.8043 102.749 63.8454 101.151 63.9031 99.2992C63.9609 97.2408 64.3306 95.1708 64.8389 93.1698C65.4281 90.8698 66.3061 88.6389 67.0917 86.2814C66.7336 86.3044 66.5718 86.2699 66.5372 86.3274C64.5154 89.6279 62.4706 92.9168 60.4951 96.2518C59.8019 97.4248 59.3398 98.7472 58.6467 99.9317C58.3116 100.507 57.5029 101.415 57.2141 101.312C55.5852 100.737 54.5454 102.381 53.0898 102.197C51.6226 102.013 50.1323 101.921 48.6767 101.668C44.1365 100.886 39.6309 101.875 35.1022 101.921C33.7737 101.933 32.4682 102.956 31.1166 103.382C30.0191 103.715 28.7945 103.934 28.032 102.692C27.2349 101.392 27.6161 100.024 28.4479 99.0232C30.0884 97.0568 31.9484 95.2743 33.739 93.4228C36.142 90.9388 38.5449 88.4664 40.9364 85.9709C41.179 85.7179 41.2945 85.3269 41.5255 84.9129C40.2085 84.9129 39.0186 85.0049 37.8633 84.8669C37.4705 84.8209 36.9738 84.2229 36.8698 83.7859C36.812 83.5329 37.3666 82.9694 37.7594 82.8084C38.8107 82.3599 39.9197 81.8195 41.0288 81.7505C42.7155 81.6585 43.3509 80.842 43.7899 79.3585C44.795 75.9315 47.429 73.6086 49.8204 71.1706C51.923 69.0316 54.1296 66.9961 56.2899 64.9147C56.1513 64.7997 56.0473 64.6617 55.9433 64.5237Z" fill="white"/>
<path d="M7.78015 86.7185C7.05233 87.075 6.48625 87.3625 5.49271 87.857C5.88551 87.121 6.02414 86.73 6.26675 86.4425C7.82636 84.614 8.90077 82.7625 8.56574 80.1291C8.11518 76.5296 9.82498 73.3327 11.1998 70.1242C12.4474 67.2262 13.8684 64.3858 14.9197 61.4073C15.6938 59.2108 15.8902 56.8189 16.5371 54.5649C17.831 50.0569 20.4766 46.3655 23.9308 43.2375C25.5251 41.7886 27.2118 40.4316 28.9332 39.1321C31.1051 37.4876 35.0445 38.0626 36.6157 40.3166C37.4937 41.5701 37.6208 43.088 36.9276 44.491C36.0034 46.354 34.7673 48.0675 34.0164 49.9879C32.8495 52.9779 31.9022 56.0599 31.0011 59.1418C29.8112 63.2243 27.2349 66.3292 24.2197 69.1582C21.9207 71.3202 19.5177 73.3672 17.2649 75.5866C16.0981 76.7251 15.0121 78.0131 14.1804 79.4046C13.6605 80.2786 13.6374 81.463 13.4756 82.521C13.233 84.0965 13.0482 85.672 12.8056 87.5465C13.4063 86.5 13.9493 85.6375 14.3999 84.7405C15.9133 81.716 17.0108 78.4041 18.9863 75.7131C20.9965 72.9877 23.8153 70.8487 26.3338 68.5027C27.2349 67.6632 28.6443 67.8472 29.0949 69.0432C29.5917 70.3542 29.7881 71.8607 29.7419 73.2752C29.6494 76.2651 29.5686 79.3011 29.0025 82.2335C28.5635 84.453 27.5468 86.6035 26.4724 88.6275C25.3172 90.8009 23.7922 92.7789 22.66 95.0674C23.7113 94.3199 24.7742 93.5724 25.8255 92.8249C25.9526 92.8939 26.0796 92.9744 26.2067 93.0434C24.0348 96.4474 21.9207 99.8858 19.6448 103.221C18.7783 104.486 17.5769 105.636 15.74 104.934C14.3883 104.405 13.6027 102.588 13.8107 100.633C14.1457 97.6548 15.5551 95.1134 17.3342 92.8134C20.3611 88.892 22.2441 84.614 22.3712 79.5886C22.4174 77.6221 22.972 75.6786 23.3185 73.6087C23.0066 73.8616 22.4868 74.1261 22.1864 74.5286C20.4881 76.8056 18.8476 79.1056 17.1725 81.4055C17.0801 81.5435 16.953 81.647 16.8606 81.7965C13.6605 86.8795 10.3564 91.8934 7.3296 97.0799C5.96638 99.4143 5.15769 102.082 4.1295 104.601C3.7367 105.555 3.08975 106.487 2.09622 105.923C1.35684 105.509 0.582813 104.348 0.594366 103.531C0.675235 99.7248 2.05001 96.3094 4.22192 93.1814C5.43495 91.4334 6.4747 89.582 7.5722 87.7535C7.72239 87.512 7.69928 87.167 7.78015 86.7185ZM17.1956 69.2732C17.3458 69.3767 17.4844 69.4802 17.6346 69.5837C19.3098 67.6172 21.1235 65.7542 22.6023 63.6613C23.5265 62.3618 24.2543 60.7748 24.5316 59.2223C25.3865 54.4959 26.7728 50.0339 29.6725 46.1355C29.9614 45.7445 30.1346 45.25 30.5737 44.4105C29.8112 44.951 29.4761 45.227 29.1065 45.4455C25.2247 47.688 23.0297 51.1839 21.8976 55.3814C20.6961 59.8203 20.1647 64.4778 17.4267 68.3992C17.2649 68.6177 17.2649 68.9742 17.1956 69.2732Z" fill="white"/>
<path d="M60.0792 53.7254C55.7932 53.1849 51.484 52.7364 47.2211 52.0579C44.2058 51.5749 41.9646 49.6199 41.4216 46.7334C40.8093 43.5135 42.2303 40.765 45.0954 38.856C46.8629 37.6831 48.5959 36.4641 50.2132 35.1071C52.2119 33.4281 54.5339 33.1061 56.9831 33.1061C59.9753 33.1061 63.0945 32.5656 65.9249 33.2441C69.1943 34.0261 72.5677 35.2681 74.8205 38.1316C76.4494 40.19 75.687 42.444 74.5663 44.284C71.528 49.3324 66.699 51.9544 61.1074 53.3459C60.7955 53.4264 60.4489 53.3574 60.1139 53.3574C60.1024 53.4839 60.0908 53.5989 60.0792 53.7254ZM47.741 40.397C46.8976 41.455 45.8348 42.3635 45.3611 43.5135C44.8643 44.7095 46.3315 46.6759 48.0875 46.8254C52.2812 47.1934 56.5441 47.5844 60.7146 47.2394C64.0649 46.6184 66.7683 45.1005 67.7502 44.3875C69.7604 43.226 69.564 41.777 67.577 40.535C67.0224 40.19 66.4563 39.868 65.8903 39.523C63.649 41.662 60.8879 42.5475 58.0229 43.203C54.2798 44.054 50.814 43.801 47.741 40.397ZM63.0598 38.0166C62.5977 37.7866 62.3782 37.5796 62.1472 37.5566C59.6402 37.3841 57.1333 37.1426 54.6264 37.1311C53.6906 37.1196 52.6971 37.5451 51.8306 37.9706C51.3223 38.2235 51.0104 38.879 50.606 39.3505C51.0797 39.6495 51.5187 40.098 52.0386 40.2245C55.9318 41.202 59.5363 40.581 63.0598 38.0166Z" fill="white"/>
<path d="M99.1277 76.38C99.7977 76.2305 100.456 76.035 101.138 75.9545C102.917 75.7475 104.708 75.4025 106.475 75.4715C108.589 75.552 109.537 77.5185 108.185 79.094C105.297 82.4519 102.27 85.6949 99.1623 88.8458C97.3948 90.6398 95.3731 92.1578 93.4669 93.8023C93.3513 93.6873 93.2358 93.5838 93.1318 93.4688C94.0561 92.5603 95.0034 91.6748 95.8929 90.7433C98.0186 88.5238 100.225 86.3619 102.178 83.9814C103.09 82.8774 103.495 81.3479 104.28 79.6575C101.727 80.1174 99.6938 80.3819 97.7067 80.8649C96.3319 81.1984 95.2344 80.5889 94.7146 79.6689C94.2293 78.8065 94.0098 77.2425 94.4951 76.518C95.5579 74.908 97.0251 73.5165 98.5038 72.24C100.907 70.1816 103.472 68.2956 105.955 66.3291C106.244 66.0991 106.452 65.7771 106.949 65.2021C104.95 64.9606 103.229 64.6156 101.496 64.5581C99.5436 64.5006 97.776 63.7071 97.1868 62.0857C96.5052 60.2112 97.2331 58.5437 98.3999 57.1062C100.329 54.7143 102.293 52.3453 104.338 50.0453C106.348 47.8028 108.485 45.6639 111.385 44.5829C112.067 44.3299 113.106 44.2839 113.661 44.6404C114.077 44.9164 114.054 45.9744 114.088 46.6874C114.181 48.5733 112.887 49.8153 111.709 50.9653C110.022 52.6098 109.075 54.5993 108.289 56.7267C108.116 57.1982 107.711 57.5892 107.191 58.3137C107.989 58.3137 108.485 58.2792 108.971 58.3252C110.588 58.4747 112.309 58.3482 113.788 58.8887C115.613 59.5557 115.948 61.2577 114.551 62.5802C111.974 65.0066 109.202 67.2261 106.498 69.5261C103.968 71.6766 101.415 73.8155 98.8735 75.9545C98.9544 76.0925 99.0468 76.242 99.1277 76.38Z" fill="white"/>
<path d="M11.1997 115.618C13.7413 114.824 16.2945 114.031 18.836 113.226C22.6022 112.03 26.3338 110.742 30.123 109.638C35.8185 107.97 41.6989 107.568 47.5907 107.28C49.8204 107.165 52.0385 106.51 54.2451 106.567C57.2141 106.636 60.1832 107.154 63.1522 107.464C63.9725 107.556 64.7927 107.602 65.613 107.66C67.7733 107.809 68.8708 108.879 68.9055 110.914C68.9401 112.605 67.4614 114.077 65.7631 114.468C62.8403 115.158 60.137 113.996 57.3297 113.766C54.453 113.525 51.5418 113.663 48.642 113.571C45.4188 113.467 42.1956 113.249 38.984 113.18C37.2973 113.145 35.599 113.318 33.9123 113.364C29.1873 113.49 24.4969 113.594 19.8642 114.974C17.1378 115.79 14.1341 115.675 11.2575 115.974C11.2459 115.848 11.2228 115.733 11.1997 115.618Z" fill="white"/>
<path d="M79.788 106.889C79.118 104.555 80.2039 102.818 82.8842 102.519C86.4077 102.117 90.9364 103.336 92.7848 107.05C93.8939 109.27 93.2816 112.283 91.4794 114.387C88.0598 118.4 81.8444 118.918 77.4544 116.71C75.0861 115.514 74.4045 113.295 75.5713 110.88C76.7728 108.407 77.6739 107.545 79.788 106.889ZM80.2963 107.614C79.7534 108.419 78.9447 109.27 78.5981 110.27C78.3208 111.052 78.2746 112.513 78.7252 112.835C80.7238 114.284 84.2243 113.755 85.8416 111.949C86.3038 111.432 86.8698 110.535 86.7081 110.029C86.5348 109.477 85.6221 109.017 84.9405 108.798C83.4618 108.315 81.9253 108.016 80.2963 107.614Z" fill="white"/>
<path d="M58.7622 23.5498C59.2474 22.3538 59.6518 21.1118 60.2525 19.9618C61.685 17.2133 62.3898 14.5569 61.2345 11.3944C59.5709 6.86347 62.332 1.84954 67.0108 0.182059C68.4434 -0.323934 69.2059 0.239559 68.9401 1.68854C68.8131 2.37853 68.7091 3.20652 68.2701 3.68952C66.3061 5.85149 66.1791 8.40445 66.5141 11.0609C66.93 14.3154 65.8671 17.0178 63.6375 19.3638C62.1934 20.8818 60.807 22.4688 59.3976 24.0328L58.7622 23.5498Z" fill="white"/>
<path d="M68.2007 23.4348C69.8065 21.1234 71.5048 18.8809 72.9835 16.4889C74.0926 14.6949 74.9128 12.74 75.837 10.8425C76.6573 9.14051 77.9858 8.42752 79.1873 9.08301C80.5274 9.819 81.4517 12.7515 80.5852 13.844C77.5353 17.6964 74.1157 21.1464 69.7372 23.5268C69.5408 23.6303 69.3444 23.7338 69.1365 23.7913C68.9863 23.8373 68.813 23.8028 68.6628 23.8028C68.5126 23.6763 68.3509 23.5613 68.2007 23.4348Z" fill="white"/>
<path d="M48.8843 28.5752C49.0229 26.2637 48.7803 23.8488 49.381 21.6638C50.259 18.5128 50.3053 15.4424 49.9125 12.2684C49.8316 11.6474 50.028 10.5664 50.3977 10.4054C50.9869 10.1524 51.9342 10.3134 52.558 10.6354C54.9725 11.9004 55.8968 14.3499 54.8339 16.8799C53.8057 19.3293 52.5811 21.6983 51.4374 24.0903C50.7212 25.5852 50.0049 27.0802 49.2886 28.5752C49.1615 28.5867 49.0229 28.5867 48.8843 28.5752Z" fill="white"/>
</svg>
